<svg width="69.201" height="59.401" viewBox="0.001 19 69.2 59.401" xmlns="http://www.w3.org/2000/svg"><path d="m69.201 77-3-28.3 3-28.3h-13.4l-2.2 21.1 2.6 7.2-2.6 7.3 2.2 21zm-9.4-28.3q-1.8-9-6.25-15.65t-10.9-10.35-14.35-3.7q-8.3 0-14.7 3.75t-10 10.4-3.6 15.55q0 8.8 3.6 15.5t10 10.45 14.7 3.75q7.9 0 14.35-3.7t10.85-10.4 6.3-15.6Zm-46.6 0q0-5.7 2.35-10.05t6.45-6.8 9.4-2.45q5.4 0 10 2.45t8.15 6.8 5.65 10.05q-2.1 5.7-5.65 10.05t-8.15 6.8-10 2.45q-5.3 0-9.4-2.45t-6.45-6.8-2.35-10.05Z" vector-effect="non-scaling-stroke" font-size="12" style="stroke:#000;stroke-width:0;fill:#000"/></svg>